<svg xmlns="http://www.w3.org/2000/svg" viewBox="0 0 128 128"><defs><style>.cls-1{fill:#4285f4;}.cls-2{opacity:0.07;}.cls-3{fill:#fff;}</style></defs><title>CloudRun_Hex 128px</title><g id="BASE"><path class="cls-1" d="M126.47,58.12l-26.3-45.74A11.56,11.56,0,0,0,90.31,6.5H37.7a11.54,11.54,0,0,0-9.87,5.88L1.53,58a11.44,11.44,0,0,0,0,11.43l26.3,46a11.78,11.78,0,0,0,9.86,6.09H90.3a11.74,11.74,0,0,0,9.87-6.06l26.3-45.75A11.7,11.7,0,0,0,126.47,58.12Z"/></g><g id="shadow"><path class="cls-2" d="M97.59,64,60.68,42.24,63.59,56,49.76,42.12,52.46,63,40.71,92,70.24,121.5H90.3a11.74,11.74,0,0,0,9.87-6.06l17.84-31Z"/></g><g id="art"><polygon class="cls-3" points="56.54 64 49.76 42.12 40.71 36.03 49.38 64 40.71 91.97 49.76 85.88 56.54 64"/><path class="cls-3" d="M56.05,36l8.67,28h0L56.05,92,97.59,64h0ZM67.67,60,63.23,45.69,84.49,60Z"/></g></svg>